<svg id="svg8" version="1.1" viewBox="0 0 207.46 207.46" xmlns="http://www.w3.org/2000/svg">
 <g id="layer1" transform="translate(.079921 -8.2133)">
  <g fill="#808080">
   <path id="spike_08" d="m48.112 31.498c-1.5975 16.486 56.111 71.856 51.338 76.082-4.7991 4.2484-59.907-53.179-75.062-52.358-4.1282 0.22362 0.01754-10.604 6.5687-17.155 6.5511-6.5511 17.554-10.684 17.155-6.5687z"/>
   <path id="spike_07" d="m7.4058 94.377c10.528 12.787 90.487 11.133 90.099 17.497-0.38942 6.3976-79.964 4.7573-90.099 16.054-2.761 3.0772-7.4857-7.5105-7.4857-16.775 0-9.2647 4.8579-19.967 7.4857-16.775z"/>
   <path id="spike_06" d="m23.205 167.48c16.486 1.5975 71.856-56.111 76.082-51.338 4.2484 4.7991-53.179 59.907-52.358 75.062 0.22362 4.1282-10.604-0.0175-17.155-6.5687-6.5511-6.5511-10.684-17.554-6.5687-17.155z"/>
   <path id="spike_01" d="m121.21 15.699c-12.787 10.528-11.133 90.487-17.497 90.099-6.3976-0.38942-4.7573-79.964-16.054-90.099-3.0772-2.761 7.5105-7.4857 16.775-7.4857 9.2647 0 19.967 4.8579 16.775 7.4857z"/>
   <path id="spike_05" d="m86.084 208.19c12.787-10.528 11.133-90.487 17.497-90.099 6.3976 0.38942 4.7573 79.964 16.054 90.099 3.0772 2.761-7.5105 7.4857-16.775 7.4857-9.2647 0-19.967-4.858-16.775-7.4857z"/>
   <path id="spike_04" d="m159.19 192.39c1.5975-16.486-56.111-71.856-51.338-76.082 4.7991-4.2484 59.907 53.179 75.062 52.358 4.1282-0.22362-0.0175 10.604-6.5687 17.155-6.5511 6.5511-17.554 10.684-17.155 6.5687z"/>
   <path id="spike_03" d="m199.89 129.51c-10.528-12.787-90.487-11.133-90.099-17.497 0.38942-6.3976 79.964-4.7573 90.099-16.054 2.761-3.0772 7.4857 7.5105 7.4857 16.775 0 9.2647-4.858 19.967-7.4857 16.775z"/>
   <path id="spike_02" d="m184.09 56.405c-16.486-1.5975-71.856 56.111-76.082 51.338-4.2484-4.7991 53.179-59.907 52.358-75.062-0.22362-4.1282 10.604 0.01754 17.155 6.5687 6.5511 6.5511 10.684 17.554 6.5687 17.155z"/>
  </g>
  <circle id="body" transform="rotate(-67.5)" cx="-63.757" cy="138.6" r="54.294"/>
  <path id="path889" d="m103.97 111.94 29.429 12.323-29.523-12.096 12.096 29.523-12.323-29.429-12.323 29.429 12.096-29.523-29.523 12.096 29.429-12.323-29.429-12.323 29.523 12.096-12.096-29.523 12.323 29.429 12.323-29.429-12.096 29.523 29.523-12.096z" fill="none" stroke="#fff" stroke-width=".88066"/>
  <path id="path889-3" transform="rotate(-67.5 103.65 111.94)" d="m135.79 111.94 12.85 18.635-22.263 4.0907-4.0907 22.263-18.635-12.85-18.635 12.85-4.0907-22.263-22.263-4.0907 12.85-18.635-12.85-18.635 22.263-4.0907 4.0907-22.263 18.635 12.85 18.635-12.85 4.0907 22.263 22.263 4.0907z" fill="none" stroke="#fff" stroke-width="1.3317"/>
 </g>
</svg>
